<mxfile host="app.diagrams.net" modified="2022-10-11T00:58:34.205Z" agent="5.0 (Macintosh; Intel Mac OS X 10_15_7) AppleWebKit/605.1.15 (KHTML, like Gecko) Version/16.1 Safari/605.1.15" etag="UIRzrSQHRjRKig1XKBDw" version="20.4.0" type="github">
  <diagram name="Page-1" id="e7e014a7-5840-1c2e-5031-d8a46d1fe8dd">
    <mxGraphModel dx="696" dy="580" grid="1" gridSize="10" guides="1" tooltips="1" connect="1" arrows="1" fold="1" page="1" pageScale="1" pageWidth="1169" pageHeight="826" background="none" math="0" shadow="0">
      <root>
        <mxCell id="0" />
        <mxCell id="1" parent="0" />
        <mxCell id="KQSiibm8jzxjIKtiUrHb-41" value="" style="whiteSpace=wrap;html=1;" parent="1" vertex="1">
          <mxGeometry x="200" y="40" width="600" height="720" as="geometry" />
        </mxCell>
        <mxCell id="KQSiibm8jzxjIKtiUrHb-42" value="Library" style="text;html=1;strokeColor=none;fillColor=none;align=center;verticalAlign=middle;whiteSpace=wrap;rounded=0;" parent="1" vertex="1">
          <mxGeometry x="200" y="10" width="60" height="30" as="geometry" />
        </mxCell>
        <mxCell id="KQSiibm8jzxjIKtiUrHb-43" value="" style="ellipse;whiteSpace=wrap;html=1;aspect=fixed;" parent="1" vertex="1">
          <mxGeometry x="400" y="300" width="200" height="200" as="geometry" />
        </mxCell>
        <mxCell id="KQSiibm8jzxjIKtiUrHb-44" value="Library Manager" style="text;html=1;strokeColor=none;fillColor=none;align=center;verticalAlign=middle;whiteSpace=wrap;rounded=0;fontSize=23;" parent="1" vertex="1">
          <mxGeometry x="435" y="356.5" width="130" height="87" as="geometry" />
        </mxCell>
        <mxCell id="KQSiibm8jzxjIKtiUrHb-46" value="" style="whiteSpace=wrap;html=1;fontSize=23;" parent="1" vertex="1">
          <mxGeometry x="280" y="120" width="180" height="60" as="geometry" />
        </mxCell>
        <mxCell id="KQSiibm8jzxjIKtiUrHb-47" value="Citizen" style="text;html=1;strokeColor=none;fillColor=none;align=center;verticalAlign=middle;whiteSpace=wrap;rounded=0;fontSize=23;" parent="1" vertex="1">
          <mxGeometry x="290" y="135" width="160" height="30" as="geometry" />
        </mxCell>
        <mxCell id="KQSiibm8jzxjIKtiUrHb-49" value="" style="endArrow=classic;startArrow=classic;html=1;rounded=0;fontSize=23;entryX=0.75;entryY=1;entryDx=0;entryDy=0;exitX=0.32;exitY=0.02;exitDx=0;exitDy=0;exitPerimeter=0;" parent="1" source="KQSiibm8jzxjIKtiUrHb-43" target="KQSiibm8jzxjIKtiUrHb-46" edge="1">
          <mxGeometry width="50" height="50" relative="1" as="geometry">
            <mxPoint x="420" y="270" as="sourcePoint" />
            <mxPoint x="470" y="220" as="targetPoint" />
          </mxGeometry>
        </mxCell>
        <mxCell id="KQSiibm8jzxjIKtiUrHb-50" value="" style="rounded=0;whiteSpace=wrap;html=1;fontSize=23;" parent="1" vertex="1">
          <mxGeometry x="590" y="120" width="190" height="60" as="geometry" />
        </mxCell>
        <mxCell id="KQSiibm8jzxjIKtiUrHb-51" value="Librarian" style="text;html=1;strokeColor=none;fillColor=none;align=center;verticalAlign=middle;whiteSpace=wrap;rounded=0;fontSize=23;" parent="1" vertex="1">
          <mxGeometry x="630" y="135" width="110" height="30" as="geometry" />
        </mxCell>
        <mxCell id="KQSiibm8jzxjIKtiUrHb-52" value="" style="endArrow=classic;startArrow=classic;html=1;rounded=0;fontSize=23;entryX=0;entryY=1;entryDx=0;entryDy=0;exitX=0.71;exitY=0.04;exitDx=0;exitDy=0;exitPerimeter=0;" parent="1" source="KQSiibm8jzxjIKtiUrHb-43" target="KQSiibm8jzxjIKtiUrHb-50" edge="1">
          <mxGeometry width="50" height="50" relative="1" as="geometry">
            <mxPoint x="540" y="260" as="sourcePoint" />
            <mxPoint x="590" y="210" as="targetPoint" />
          </mxGeometry>
        </mxCell>
      </root>
    </mxGraphModel>
  </diagram>
</mxfile>
